<?xml version="1.0" encoding="utf-8"?>
<!-- Generator: Adobe Illustrator 24.0.0, SVG Export Plug-In . SVG Version: 6.00 Build 0)  -->
<svg version="1.1" id="Layer_1" xmlns="http://www.w3.org/2000/svg" xmlns:xlink="http://www.w3.org/1999/xlink" x="0px" y="0px"
	 viewBox="0 0 672.77 128.83" style="enable-background:new 0 0 672.77 128.83;" xml:space="preserve">
<style type="text/css">
	.st0{fill:none;}
	.st1{fill:#1C4F91;}
	.st2{fill:#AC1E82;}
	.st3{fill:#63666B;}
	.st4{fill:#FFFFFF;}
</style>
<g>
	<g>
		<path class="st0" d="M27.79,70.91h-7.51c-2.23,0-4.04-1.81-4.04-4.04v-7.51c0-2.24,1.81-4.04,4.04-4.04h7.51
			c2.23,0,4.04,1.81,4.04,4.04v7.51C31.83,69.1,30.02,70.91,27.79,70.91"/>
		<path class="st0" d="M12.19,70.91H4.68c-2.23,0-4.04-1.81-4.04-4.04v-7.51c0-2.24,1.81-4.04,4.04-4.04h7.51
			c2.23,0,4.04,1.81,4.04,4.04v7.51C16.23,69.1,14.42,70.91,12.19,70.91"/>
	</g>
	<g>
		<path class="st0" d="M314.85,27.15v-7.51c0-2.23,1.81-4.04,4.04-4.04h7.51c2.24,0,4.04,1.81,4.04,4.04v7.51
			c0,2.23-1.81,4.04-4.04,4.04h-7.51C316.66,31.19,314.85,29.38,314.85,27.15"/>
		<path class="st0" d="M314.85,11.55V4.04c0-2.23,1.81-4.04,4.04-4.04h7.51c2.24,0,4.04,1.81,4.04,4.04v7.51
			c0,2.23-1.81,4.04-4.04,4.04h-7.51C316.66,15.59,314.85,13.78,314.85,11.55"/>
	</g>
	<g>
		<path class="st0" d="M314.85,124.79v-7.51c0-2.23,1.81-4.04,4.04-4.04h7.51c2.24,0,4.04,1.81,4.04,4.04v7.51
			c0,2.23-1.81,4.04-4.04,4.04h-7.51C316.66,128.83,314.85,127.02,314.85,124.79"/>
		<path class="st0" d="M314.85,109.2v-7.51c0-2.23,1.81-4.04,4.04-4.04h7.51c2.24,0,4.04,1.81,4.04,4.04v7.51
			c0,2.23-1.81,4.04-4.04,4.04h-7.51C316.66,113.24,314.85,111.43,314.85,109.2"/>
	</g>
	<g>
		<path class="st0" d="M668.09,70.91h-7.51c-2.23,0-4.04-1.81-4.04-4.04v-7.51c0-2.24,1.81-4.04,4.04-4.04h7.51
			c2.23,0,4.04,1.81,4.04,4.04v7.51C672.13,69.1,670.32,70.91,668.09,70.91"/>
		<path class="st0" d="M652.5,70.91h-7.51c-2.23,0-4.04-1.81-4.04-4.04v-7.51c0-2.24,1.81-4.04,4.04-4.04h7.51
			c2.23,0,4.04,1.81,4.04,4.04v7.51C656.54,69.1,654.73,70.91,652.5,70.91"/>
	</g>
	<rect x="0.06" class="st0" width="672.66" height="128.83"/>
	<g>
		<g>
			<g>
				<path class="st1" d="M32.68,72.77c-0.55-1.83-0.86-4.33-0.86-7.51c0-3.24,0.31-5.74,0.86-7.57c1.53-4.88,5.49-7.57,10.81-7.57
					s9.34,2.69,10.87,7.57c0.55,1.71,0.86,4.27,0.86,7.75c0,0.43-0.24,0.61-0.67,0.61H35.55c-0.24,0-0.37,0.12-0.37,0.43
					c0,2.14,0.18,3.85,0.61,5.13c1.28,3.79,4.03,5.68,8.24,5.68c3.42,0,6.1-1.22,8.12-3.72c0.24-0.31,0.55-0.37,0.86-0.12l1.4,1.28
					c0.31,0.24,0.31,0.55,0.06,0.85c-2.44,3.24-5.98,4.88-10.62,4.88C38.06,80.46,34.33,77.9,32.68,72.77z M51.49,63.25
					c0.24,0,0.37-0.12,0.37-0.37c0-1.65-0.18-3.05-0.55-4.21c-1.16-3.66-3.79-5.49-7.81-5.49c-3.97,0-6.59,1.83-7.75,5.49
					c-0.37,1.16-0.55,2.56-0.55,4.21c0,0.24,0.12,0.37,0.37,0.37H51.49z"/>
				<path class="st1" d="M84.57,79.85c-0.37,0-0.67-0.18-0.86-0.49l-8.06-11.84H75.6l-8.12,11.84c-0.18,0.31-0.49,0.49-0.85,0.49
					h-2.44c-0.49,0-0.61-0.18-0.37-0.61l9.95-14.65l-8.97-13.25c-0.24-0.43-0.12-0.61,0.37-0.61h2.5c0.37,0,0.67,0.18,0.86,0.49
					l7.08,10.5h0.06l7.14-10.5c0.18-0.31,0.49-0.49,0.86-0.49h2.44c0.49,0,0.61,0.18,0.37,0.61l-9.04,13.25l10.01,14.65
					c0.24,0.43,0.12,0.61-0.37,0.61H84.57z"/>
				<path class="st1" d="M98.06,90.84c-0.43,0-0.61-0.18-0.61-0.61V51.34c0-0.43,0.18-0.61,0.61-0.61h2.08
					c0.43,0,0.61,0.18,0.61,0.61v3.54h0.06c1.65-3.17,4.58-4.76,8.85-4.76c5.07,0,8.36,2.32,9.89,6.96
					c0.67,2.26,1.04,5.01,1.04,8.24c0,3.24-0.37,5.92-1.04,8.18c-1.53,4.64-4.82,6.96-9.89,6.96c-4.27,0-7.21-1.59-8.85-4.76h-0.06
					v14.53c0,0.43-0.18,0.61-0.61,0.61H98.06z M116.44,72.16c0.55-1.59,0.79-3.85,0.79-6.84c0-2.99-0.24-5.31-0.79-6.9
					c-1.16-3.42-3.6-5.13-7.45-5.13s-6.35,1.71-7.45,5.13c-0.55,1.53-0.79,3.85-0.79,6.9c0,2.99,0.24,5.31,0.79,6.84
					c1.1,3.42,3.6,5.13,7.45,5.13S115.28,75.58,116.44,72.16z"/>
				<path class="st1" d="M131.21,72.77c-0.55-1.83-0.85-4.33-0.85-7.51c0-3.24,0.3-5.74,0.85-7.57c1.53-4.88,5.5-7.57,10.81-7.57
					s9.34,2.69,10.87,7.57c0.55,1.71,0.85,4.27,0.85,7.75c0,0.43-0.24,0.61-0.67,0.61h-18.99c-0.24,0-0.37,0.12-0.37,0.43
					c0,2.14,0.18,3.85,0.61,5.13c1.28,3.79,4.03,5.68,8.24,5.68c3.42,0,6.11-1.22,8.12-3.72c0.24-0.31,0.55-0.37,0.85-0.12l1.4,1.28
					c0.31,0.24,0.31,0.55,0.06,0.85c-2.44,3.24-5.98,4.88-10.62,4.88C136.58,80.46,132.86,77.9,131.21,72.77z M150.01,63.25
					c0.24,0,0.37-0.12,0.37-0.37c0-1.65-0.18-3.05-0.55-4.21c-1.16-3.66-3.79-5.49-7.81-5.49c-3.97,0-6.59,1.83-7.75,5.49
					c-0.37,1.16-0.55,2.56-0.55,4.21c0,0.24,0.12,0.37,0.37,0.37H150.01z"/>
				<path class="st1" d="M166.01,79.85c-0.43,0-0.61-0.18-0.61-0.61v-27.9c0-0.43,0.18-0.61,0.61-0.61h2.08
					c0.43,0,0.61,0.18,0.61,0.61v3.72h0.06c1.28-3.3,3.85-4.94,7.81-4.94c2.38,0,4.33,0.67,5.86,2.01c0.31,0.18,0.37,0.49,0.12,0.79
					l-1.22,1.71c-0.18,0.31-0.49,0.31-0.92,0.12c-1.53-0.98-3.11-1.47-4.64-1.47c-4.82,0-7.08,3.97-7.08,9.83v16.12
					c0,0.43-0.18,0.61-0.61,0.61H166.01z"/>
				<path class="st1" d="M192.32,42.98c-0.43,0-0.61-0.18-0.61-0.61v-3.42c0-0.43,0.18-0.61,0.61-0.61H195
					c0.43,0,0.61,0.18,0.61,0.61v3.42c0,0.43-0.18,0.61-0.61,0.61H192.32z M192.62,79.85c-0.43,0-0.61-0.18-0.61-0.61v-27.9
					c0-0.43,0.18-0.61,0.61-0.61h2.08c0.43,0,0.61,0.18,0.61,0.61v27.9c0,0.43-0.18,0.61-0.61,0.61H192.62z"/>
				<path class="st1" d="M211.3,55.37c-0.37,0.31-0.67,0.24-0.92-0.06l-1.04-1.53c-0.18-0.31-0.12-0.61,0.18-0.85
					c2.2-1.89,5.31-2.81,9.28-2.81c7.63,0,10.62,2.56,10.62,9.65v19.48c0,0.43-0.18,0.61-0.61,0.61h-1.95
					c-0.43,0-0.61-0.18-0.61-0.61v-3.05h-0.06c-1.22,2.5-4.46,4.27-9.04,4.27c-6.04,0-9.77-3.05-9.77-8.61
					c0-5.74,3.66-8.61,11.05-8.61h7.39c0.24,0,0.37-0.12,0.37-0.37v-2.99c0-4.88-1.77-6.72-7.57-6.72
					C215.51,53.17,213.07,53.91,211.3,55.37z M226.2,70.88v-4.46c0-0.24-0.12-0.37-0.37-0.37h-6.96c-5.68,0-8.24,1.83-8.24,5.74
					c0,3.66,2.56,5.62,7.2,5.62C222.9,77.41,226.2,74.85,226.2,70.88z"/>
				<path class="st1" d="M262.22,79.85c-0.43,0-0.61-0.18-0.61-0.61V62.03c0-5.8-2.56-8.73-7.63-8.73c-4.58,0-7.94,3.17-7.94,8.12
					v17.83c0,0.43-0.18,0.61-0.61,0.61h-2.08c-0.43,0-0.61-0.18-0.61-0.61v-27.9c0-0.43,0.18-0.61,0.61-0.61h2.08
					c0.43,0,0.61,0.18,0.61,0.61v3.48h0.06c1.59-3.11,4.46-4.7,8.61-4.7c6.53,0,10.2,4.03,10.2,11.11v18.01
					c0,0.43-0.18,0.61-0.61,0.61H262.22z"/>
			</g>
		</g>
		<g>
			<path class="st2" d="M335.78,38.95c0-0.43,0.18-0.61,0.61-0.61h2.32c0.43,0,0.73,0.18,0.92,0.61l13.49,29.73h0.24l13.19-29.73
				c0.18-0.43,0.43-0.61,0.85-0.61h2.38c0.43,0,0.61,0.18,0.61,0.61v40.29c0,0.43-0.18,0.61-0.61,0.61h-2.26
				c-0.43,0-0.61-0.18-0.61-0.61V46.76h-0.18l-11.97,26.31c-0.18,0.43-0.55,0.67-1.1,0.67h-1.22c-0.43,0-0.79-0.24-1.04-0.67
				l-11.97-26.31h-0.18v32.48c0,0.43-0.18,0.61-0.61,0.61h-2.26c-0.43,0-0.61-0.18-0.61-0.61V38.95z"/>
			<path class="st2" d="M384.49,42.98c-0.43,0-0.61-0.18-0.61-0.61v-3.42c0-0.43,0.18-0.61,0.61-0.61h2.69
				c0.43,0,0.61,0.18,0.61,0.61v3.42c0,0.43-0.18,0.61-0.61,0.61H384.49z M384.8,79.85c-0.43,0-0.61-0.18-0.61-0.61v-27.9
				c0-0.43,0.18-0.61,0.61-0.61h2.08c0.43,0,0.61,0.18,0.61,0.61v27.9c0,0.43-0.18,0.61-0.61,0.61H384.8z"/>
			<path class="st2" d="M423.38,79.06c-2.5-0.92-4.52-2.08-6.04-3.42c-0.31-0.31-0.31-0.55-0.06-0.85l1.46-1.83
				c0.31-0.31,0.55-0.37,0.86-0.06c3.66,2.87,7.63,4.27,11.9,4.27c6.59,0,10.75-3.36,10.75-8.49c0-4.4-2.69-7.14-9.95-8.06
				l-1.89-0.24c-8-1.04-11.97-4.7-11.97-10.99c0-7.14,5.07-11.66,13.06-11.66c4.7,0,8.61,1.16,11.84,3.48
				c0.37,0.18,0.43,0.49,0.12,0.85l-1.22,1.89c-0.24,0.31-0.55,0.31-0.85,0.12c-3.36-2.01-6.72-3.05-10.07-3.05
				c-5.86,0-9.4,3.24-9.4,8.12c0,4.4,2.93,6.96,9.77,7.88l1.89,0.24c8.12,1.04,12.15,4.76,12.15,11.17
				c0,7.27-5.31,12.03-14.65,12.03C428.45,80.46,425.88,79.97,423.38,79.06z"/>
			<path class="st2" d="M456.34,72.77c-0.55-1.83-0.85-4.33-0.85-7.51c0-3.24,0.31-5.74,0.85-7.57c1.53-4.88,5.5-7.57,10.81-7.57
				c5.31,0,9.34,2.69,10.87,7.57c0.55,1.71,0.85,4.27,0.85,7.75c0,0.43-0.24,0.61-0.67,0.61h-18.99c-0.24,0-0.37,0.12-0.37,0.43
				c0,2.14,0.18,3.85,0.61,5.13c1.28,3.79,4.03,5.68,8.24,5.68c3.42,0,6.11-1.22,8.12-3.72c0.24-0.31,0.55-0.37,0.85-0.12l1.4,1.28
				c0.3,0.24,0.3,0.55,0.06,0.85c-2.44,3.24-5.98,4.88-10.62,4.88C461.72,80.46,457.99,77.9,456.34,72.77z M475.15,63.25
				c0.24,0,0.37-0.12,0.37-0.37c0-1.65-0.18-3.05-0.55-4.21c-1.16-3.66-3.79-5.49-7.81-5.49c-3.97,0-6.59,1.83-7.75,5.49
				c-0.37,1.16-0.55,2.56-0.55,4.21c0,0.24,0.12,0.37,0.37,0.37H475.15z"/>
			<path class="st2" d="M510,79.85c-0.43,0-0.61-0.18-0.61-0.61V62.03c0-5.8-2.56-8.73-7.63-8.73c-4.58,0-7.94,3.17-7.94,8.12v17.83
				c0,0.43-0.18,0.61-0.61,0.61h-2.08c-0.43,0-0.61-0.18-0.61-0.61v-27.9c0-0.43,0.18-0.61,0.61-0.61h2.08
				c0.43,0,0.61,0.18,0.61,0.61v3.48h0.06c1.59-3.11,4.46-4.7,8.61-4.7c6.53,0,10.2,4.03,10.2,11.11v18.01
				c0,0.43-0.18,0.61-0.61,0.61H510z"/>
			<path class="st2" d="M534.36,80.04c-5.56,0-7.57-2.2-7.57-7.88V54.03c0-0.24-0.12-0.37-0.37-0.37h-3.05
				c-0.43,0-0.61-0.18-0.61-0.61v-1.71c0-0.43,0.18-0.61,0.61-0.61h3.05c0.24,0,0.37-0.12,0.37-0.37V42c0-0.43,0.18-0.61,0.61-0.61
				h2.08c0.43,0,0.61,0.18,0.61,0.61v8.36c0,0.24,0.12,0.37,0.37,0.37h5.49c0.43,0,0.61,0.18,0.61,0.61v1.71
				c0,0.43-0.18,0.61-0.61,0.61h-5.49c-0.24,0-0.37,0.12-0.37,0.37v17.95c0,3.85,1.22,4.88,4.7,4.88h1.16
				c0.43,0,0.61,0.18,0.61,0.61v1.95c0,0.43-0.18,0.61-0.61,0.61H534.36z"/>
			<path class="st2" d="M547.73,42.98c-0.43,0-0.61-0.18-0.61-0.61v-3.42c0-0.43,0.18-0.61,0.61-0.61h2.69
				c0.43,0,0.61,0.18,0.61,0.61v3.42c0,0.43-0.18,0.61-0.61,0.61H547.73z M548.03,79.85c-0.43,0-0.61-0.18-0.61-0.61v-27.9
				c0-0.43,0.18-0.61,0.61-0.61h2.08c0.43,0,0.61,0.18,0.61,0.61v27.9c0,0.43-0.18,0.61-0.61,0.61H548.03z"/>
			<path class="st2" d="M583.87,79.85c-0.43,0-0.61-0.18-0.61-0.61V62.03c0-5.8-2.56-8.73-7.63-8.73c-4.58,0-7.94,3.17-7.94,8.12
				v17.83c0,0.43-0.18,0.61-0.61,0.61H565c-0.43,0-0.61-0.18-0.61-0.61v-27.9c0-0.43,0.18-0.61,0.61-0.61h2.08
				c0.43,0,0.61,0.18,0.61,0.61v3.48h0.06c1.59-3.11,4.46-4.7,8.61-4.7c6.53,0,10.2,4.03,10.2,11.11v18.01
				c0,0.43-0.18,0.61-0.61,0.61H583.87z"/>
			<path class="st2" d="M598.76,72.77c-0.55-1.83-0.85-4.33-0.85-7.51c0-3.24,0.31-5.74,0.85-7.57c1.53-4.88,5.5-7.57,10.81-7.57
				c5.31,0,9.34,2.69,10.87,7.57c0.55,1.71,0.85,4.27,0.85,7.75c0,0.43-0.24,0.61-0.67,0.61h-18.99c-0.24,0-0.37,0.12-0.37,0.43
				c0,2.14,0.18,3.85,0.61,5.13c1.28,3.79,4.03,5.68,8.24,5.68c3.42,0,6.11-1.22,8.12-3.72c0.24-0.31,0.55-0.37,0.85-0.12l1.4,1.28
				c0.3,0.24,0.3,0.55,0.06,0.85c-2.44,3.24-5.98,4.88-10.62,4.88C604.13,80.46,600.41,77.9,598.76,72.77z M617.56,63.25
				c0.24,0,0.37-0.12,0.37-0.37c0-1.65-0.18-3.05-0.55-4.21c-1.16-3.66-3.79-5.49-7.81-5.49c-3.97,0-6.59,1.83-7.75,5.49
				c-0.37,1.16-0.55,2.56-0.55,4.21c0,0.24,0.12,0.37,0.37,0.37H617.56z"/>
			<path class="st2" d="M638.93,80.04c-4.4,0-6.04-1.95-6.04-6.84V38.95c0-0.43,0.18-0.61,0.61-0.61h2.08
				c0.43,0,0.61,0.18,0.61,0.61v34.13c0,2.87,0.85,3.78,3.11,3.78h1.04c0.43,0,0.61,0.18,0.61,0.61v1.95c0,0.43-0.18,0.61-0.61,0.61
				H638.93z"/>
		</g>
		<rect x="303.37" y="31.19" class="st3" width="1.25" height="66.46"/>
		<g>
			<path class="st3" d="M271.74,79.85c-0.09,0-0.13-0.04-0.13-0.13v-4.3c0-0.05-0.03-0.08-0.08-0.08h-1.41
				c-0.09,0-0.13-0.04-0.13-0.13v-0.51c0-0.09,0.04-0.13,0.13-0.13h3.86c0.09,0,0.13,0.04,0.13,0.13v0.51
				c0,0.09-0.04,0.13-0.13,0.13h-1.41c-0.05,0-0.08,0.03-0.08,0.08v4.3c0,0.09-0.04,0.13-0.13,0.13H271.74z M279.25,79.85
				c-0.09,0-0.13-0.04-0.13-0.13v-3.24h-0.03l-1.2,2.49c-0.04,0.09-0.11,0.13-0.17,0.13h-0.44c-0.07,0-0.12-0.04-0.16-0.13
				l-1.2-2.49h-0.03v3.24c0,0.09-0.04,0.13-0.13,0.13h-0.55c-0.09,0-0.13-0.04-0.13-0.13v-5.03c0-0.09,0.04-0.13,0.13-0.13h0.52
				c0.07,0,0.13,0.04,0.17,0.12l1.59,3.39h0.04l1.56-3.39c0.04-0.08,0.09-0.12,0.19-0.12h0.52c0.09,0,0.13,0.04,0.13,0.13v5.03
				c0,0.09-0.04,0.13-0.13,0.13H279.25z"/>
		</g>
	</g>
</g>
<g>
	<g>
		<path class="st0" d="M27.79,270.91h-7.51c-2.23,0-4.04-1.81-4.04-4.04v-7.51c0-2.24,1.81-4.04,4.04-4.04h7.51
			c2.23,0,4.04,1.81,4.04,4.04v7.51C31.83,269.1,30.02,270.91,27.79,270.91"/>
		<path class="st0" d="M12.19,270.91H4.68c-2.23,0-4.04-1.81-4.04-4.04v-7.51c0-2.24,1.81-4.04,4.04-4.04h7.51
			c2.23,0,4.04,1.81,4.04,4.04v7.51C16.23,269.1,14.42,270.91,12.19,270.91"/>
	</g>
	<g>
		<path class="st0" d="M314.85,227.15v-7.51c0-2.23,1.81-4.04,4.04-4.04h7.51c2.24,0,4.04,1.81,4.04,4.04v7.51
			c0,2.23-1.81,4.04-4.04,4.04h-7.51C316.66,231.19,314.85,229.38,314.85,227.15"/>
		<path class="st0" d="M314.85,211.55v-7.51c0-2.23,1.81-4.04,4.04-4.04h7.51c2.24,0,4.04,1.81,4.04,4.04v7.51
			c0,2.23-1.81,4.04-4.04,4.04h-7.51C316.66,215.59,314.85,213.78,314.85,211.55"/>
	</g>
	<g>
		<path class="st0" d="M314.85,324.79v-7.51c0-2.23,1.81-4.04,4.04-4.04h7.51c2.24,0,4.04,1.81,4.04,4.04v7.51
			c0,2.23-1.81,4.04-4.04,4.04h-7.51C316.66,328.83,314.85,327.02,314.85,324.79"/>
		<path class="st0" d="M314.85,309.2v-7.51c0-2.23,1.81-4.04,4.04-4.04h7.51c2.24,0,4.04,1.81,4.04,4.04v7.51
			c0,2.23-1.81,4.04-4.04,4.04h-7.51C316.66,313.24,314.85,311.43,314.85,309.2"/>
	</g>
	<g>
		<path class="st0" d="M668.09,270.91h-7.51c-2.23,0-4.04-1.81-4.04-4.04v-7.51c0-2.24,1.81-4.04,4.04-4.04h7.51
			c2.23,0,4.04,1.81,4.04,4.04v7.51C672.13,269.1,670.32,270.91,668.09,270.91"/>
		<path class="st0" d="M652.5,270.91h-7.51c-2.23,0-4.04-1.81-4.04-4.04v-7.51c0-2.24,1.81-4.04,4.04-4.04h7.51
			c2.23,0,4.04,1.81,4.04,4.04v7.51C656.54,269.1,654.73,270.91,652.5,270.91"/>
	</g>
	<rect x="0.06" y="200" class="st1" width="672.66" height="128.83"/>
	<g>
		<g>
			<g>
				<path class="st4" d="M32.68,272.77c-0.55-1.83-0.86-4.33-0.86-7.51c0-3.24,0.31-5.74,0.86-7.57c1.53-4.88,5.49-7.57,10.81-7.57
					s9.34,2.69,10.87,7.57c0.55,1.71,0.86,4.27,0.86,7.75c0,0.43-0.24,0.61-0.67,0.61H35.55c-0.24,0-0.37,0.12-0.37,0.43
					c0,2.14,0.18,3.85,0.61,5.13c1.28,3.79,4.03,5.68,8.24,5.68c3.42,0,6.1-1.22,8.12-3.72c0.24-0.31,0.55-0.37,0.86-0.12l1.4,1.28
					c0.31,0.24,0.31,0.55,0.06,0.85c-2.44,3.24-5.98,4.88-10.62,4.88C38.06,280.46,34.33,277.9,32.68,272.77z M51.49,263.25
					c0.24,0,0.37-0.12,0.37-0.37c0-1.65-0.18-3.05-0.55-4.21c-1.16-3.66-3.79-5.49-7.81-5.49c-3.97,0-6.59,1.83-7.75,5.49
					c-0.37,1.16-0.55,2.56-0.55,4.21c0,0.24,0.12,0.37,0.37,0.37H51.49z"/>
				<path class="st4" d="M84.57,279.85c-0.37,0-0.67-0.18-0.86-0.49l-8.06-11.84H75.6l-8.12,11.84c-0.18,0.31-0.49,0.49-0.85,0.49
					h-2.44c-0.49,0-0.61-0.18-0.37-0.61l9.95-14.65l-8.97-13.25c-0.24-0.43-0.12-0.61,0.37-0.61h2.5c0.37,0,0.67,0.18,0.86,0.49
					l7.08,10.5h0.06l7.14-10.5c0.18-0.31,0.49-0.49,0.86-0.49h2.44c0.49,0,0.61,0.18,0.37,0.61l-9.04,13.25l10.01,14.65
					c0.24,0.43,0.12,0.61-0.37,0.61H84.57z"/>
				<path class="st4" d="M98.06,290.84c-0.43,0-0.61-0.18-0.61-0.61v-38.89c0-0.43,0.18-0.61,0.61-0.61h2.08
					c0.43,0,0.61,0.18,0.61,0.61v3.54h0.06c1.65-3.17,4.58-4.76,8.85-4.76c5.07,0,8.36,2.32,9.89,6.96
					c0.67,2.26,1.04,5.01,1.04,8.24c0,3.24-0.37,5.92-1.04,8.18c-1.53,4.64-4.82,6.96-9.89,6.96c-4.27,0-7.21-1.59-8.85-4.76h-0.06
					v14.53c0,0.43-0.18,0.61-0.61,0.61H98.06z M116.44,272.16c0.55-1.59,0.79-3.85,0.79-6.84c0-2.99-0.24-5.31-0.79-6.9
					c-1.16-3.42-3.6-5.13-7.45-5.13s-6.35,1.71-7.45,5.13c-0.55,1.53-0.79,3.85-0.79,6.9c0,2.99,0.24,5.31,0.79,6.84
					c1.1,3.42,3.6,5.13,7.45,5.13S115.28,275.58,116.44,272.16z"/>
				<path class="st4" d="M131.21,272.77c-0.55-1.83-0.85-4.33-0.85-7.51c0-3.24,0.3-5.74,0.85-7.57c1.53-4.88,5.5-7.57,10.81-7.57
					s9.34,2.69,10.87,7.57c0.55,1.71,0.85,4.27,0.85,7.75c0,0.43-0.24,0.61-0.67,0.61h-18.99c-0.24,0-0.37,0.12-0.37,0.43
					c0,2.14,0.18,3.85,0.61,5.13c1.28,3.79,4.03,5.68,8.24,5.68c3.42,0,6.11-1.22,8.12-3.72c0.24-0.31,0.55-0.37,0.85-0.12l1.4,1.28
					c0.31,0.24,0.31,0.55,0.06,0.85c-2.44,3.24-5.98,4.88-10.62,4.88C136.58,280.46,132.86,277.9,131.21,272.77z M150.01,263.25
					c0.24,0,0.37-0.12,0.37-0.37c0-1.65-0.18-3.05-0.55-4.21c-1.16-3.66-3.79-5.49-7.81-5.49c-3.97,0-6.59,1.83-7.75,5.49
					c-0.37,1.16-0.55,2.56-0.55,4.21c0,0.24,0.12,0.37,0.37,0.37H150.01z"/>
				<path class="st4" d="M166.01,279.85c-0.43,0-0.61-0.18-0.61-0.61v-27.9c0-0.43,0.18-0.61,0.61-0.61h2.08
					c0.43,0,0.61,0.18,0.61,0.61v3.72h0.06c1.28-3.3,3.85-4.94,7.81-4.94c2.38,0,4.33,0.67,5.86,2.01c0.31,0.18,0.37,0.49,0.12,0.79
					l-1.22,1.71c-0.18,0.31-0.49,0.31-0.92,0.12c-1.53-0.98-3.11-1.47-4.64-1.47c-4.82,0-7.08,3.97-7.08,9.83v16.12
					c0,0.43-0.18,0.61-0.61,0.61H166.01z"/>
				<path class="st4" d="M192.32,242.98c-0.43,0-0.61-0.18-0.61-0.61v-3.42c0-0.43,0.18-0.61,0.61-0.61H195
					c0.43,0,0.61,0.18,0.61,0.61v3.42c0,0.43-0.18,0.61-0.61,0.61H192.32z M192.62,279.85c-0.43,0-0.61-0.18-0.61-0.61v-27.9
					c0-0.43,0.18-0.61,0.61-0.61h2.08c0.43,0,0.61,0.18,0.61,0.61v27.9c0,0.43-0.18,0.61-0.61,0.61H192.62z"/>
				<path class="st4" d="M211.3,255.37c-0.37,0.31-0.67,0.24-0.92-0.06l-1.04-1.53c-0.18-0.31-0.12-0.61,0.18-0.85
					c2.2-1.89,5.31-2.81,9.28-2.81c7.63,0,10.62,2.56,10.62,9.65v19.48c0,0.43-0.18,0.61-0.61,0.61h-1.95
					c-0.43,0-0.61-0.18-0.61-0.61v-3.05h-0.06c-1.22,2.5-4.46,4.27-9.04,4.27c-6.04,0-9.77-3.05-9.77-8.61
					c0-5.74,3.66-8.61,11.05-8.61h7.39c0.24,0,0.37-0.12,0.37-0.37v-2.99c0-4.88-1.77-6.72-7.57-6.72
					C215.51,253.17,213.07,253.91,211.3,255.37z M226.2,270.88v-4.46c0-0.24-0.12-0.37-0.37-0.37h-6.96c-5.68,0-8.24,1.83-8.24,5.74
					c0,3.66,2.56,5.62,7.2,5.62C222.9,277.41,226.2,274.85,226.2,270.88z"/>
				<path class="st4" d="M262.22,279.85c-0.43,0-0.61-0.18-0.61-0.61v-17.22c0-5.8-2.56-8.73-7.63-8.73c-4.58,0-7.94,3.17-7.94,8.12
					v17.83c0,0.43-0.18,0.61-0.61,0.61h-2.08c-0.43,0-0.61-0.18-0.61-0.61v-27.9c0-0.43,0.18-0.61,0.61-0.61h2.08
					c0.43,0,0.61,0.18,0.61,0.61v3.48h0.06c1.59-3.11,4.46-4.7,8.61-4.7c6.53,0,10.2,4.03,10.2,11.11v18.01
					c0,0.43-0.18,0.61-0.61,0.61H262.22z"/>
			</g>
		</g>
		<g>
			<path class="st4" d="M335.78,238.95c0-0.43,0.18-0.61,0.61-0.61h2.32c0.43,0,0.73,0.18,0.92,0.61l13.49,29.73h0.24l13.19-29.73
				c0.18-0.43,0.43-0.61,0.85-0.61h2.38c0.43,0,0.61,0.18,0.61,0.61v40.29c0,0.43-0.18,0.61-0.61,0.61h-2.26
				c-0.43,0-0.61-0.18-0.61-0.61v-32.48h-0.18l-11.97,26.31c-0.18,0.43-0.55,0.67-1.1,0.67h-1.22c-0.43,0-0.79-0.24-1.04-0.67
				l-11.97-26.31h-0.18v32.48c0,0.43-0.18,0.61-0.61,0.61h-2.26c-0.43,0-0.61-0.18-0.61-0.61V238.95z"/>
			<path class="st4" d="M384.49,242.98c-0.43,0-0.61-0.18-0.61-0.61v-3.42c0-0.43,0.18-0.61,0.61-0.61h2.69
				c0.43,0,0.61,0.18,0.61,0.61v3.42c0,0.43-0.18,0.61-0.61,0.61H384.49z M384.8,279.85c-0.43,0-0.61-0.18-0.61-0.61v-27.9
				c0-0.43,0.18-0.61,0.61-0.61h2.08c0.43,0,0.61,0.18,0.61,0.61v27.9c0,0.43-0.18,0.61-0.61,0.61H384.8z"/>
			<path class="st4" d="M423.38,279.06c-2.5-0.92-4.52-2.08-6.04-3.42c-0.31-0.31-0.31-0.55-0.06-0.85l1.46-1.83
				c0.31-0.31,0.55-0.37,0.86-0.06c3.66,2.87,7.63,4.27,11.9,4.27c6.59,0,10.75-3.36,10.75-8.49c0-4.4-2.69-7.14-9.95-8.06
				l-1.89-0.24c-8-1.04-11.97-4.7-11.97-10.99c0-7.14,5.07-11.66,13.06-11.66c4.7,0,8.61,1.16,11.84,3.48
				c0.37,0.18,0.43,0.49,0.12,0.85l-1.22,1.89c-0.24,0.31-0.55,0.31-0.85,0.12c-3.36-2.01-6.72-3.05-10.07-3.05
				c-5.86,0-9.4,3.24-9.4,8.12c0,4.4,2.93,6.96,9.77,7.88l1.89,0.24c8.12,1.04,12.15,4.76,12.15,11.17
				c0,7.27-5.31,12.03-14.65,12.03C428.45,280.46,425.88,279.97,423.38,279.06z"/>
			<path class="st4" d="M456.34,272.77c-0.55-1.83-0.85-4.33-0.85-7.51c0-3.24,0.31-5.74,0.85-7.57c1.53-4.88,5.5-7.57,10.81-7.57
				c5.31,0,9.34,2.69,10.87,7.57c0.55,1.71,0.85,4.27,0.85,7.75c0,0.43-0.24,0.61-0.67,0.61h-18.99c-0.24,0-0.37,0.12-0.37,0.43
				c0,2.14,0.18,3.85,0.61,5.13c1.28,3.79,4.03,5.68,8.24,5.68c3.42,0,6.11-1.22,8.12-3.72c0.24-0.31,0.55-0.37,0.85-0.12l1.4,1.28
				c0.3,0.24,0.3,0.55,0.06,0.85c-2.44,3.24-5.98,4.88-10.62,4.88C461.72,280.46,457.99,277.9,456.34,272.77z M475.15,263.25
				c0.24,0,0.37-0.12,0.37-0.37c0-1.65-0.18-3.05-0.55-4.21c-1.16-3.66-3.79-5.49-7.81-5.49c-3.97,0-6.59,1.83-7.75,5.49
				c-0.37,1.16-0.55,2.56-0.55,4.21c0,0.24,0.12,0.37,0.37,0.37H475.15z"/>
			<path class="st4" d="M510,279.85c-0.43,0-0.61-0.18-0.61-0.61v-17.22c0-5.8-2.56-8.73-7.63-8.73c-4.58,0-7.94,3.17-7.94,8.12
				v17.83c0,0.43-0.18,0.61-0.61,0.61h-2.08c-0.43,0-0.61-0.18-0.61-0.61v-27.9c0-0.43,0.18-0.61,0.61-0.61h2.08
				c0.43,0,0.61,0.18,0.61,0.61v3.48h0.06c1.59-3.11,4.46-4.7,8.61-4.7c6.53,0,10.2,4.03,10.2,11.11v18.01
				c0,0.43-0.18,0.61-0.61,0.61H510z"/>
			<path class="st4" d="M534.36,280.04c-5.56,0-7.57-2.2-7.57-7.88v-18.13c0-0.24-0.12-0.37-0.37-0.37h-3.05
				c-0.43,0-0.61-0.18-0.61-0.61v-1.71c0-0.43,0.18-0.61,0.61-0.61h3.05c0.24,0,0.37-0.12,0.37-0.37V242c0-0.43,0.18-0.61,0.61-0.61
				h2.08c0.43,0,0.61,0.18,0.61,0.61v8.36c0,0.24,0.12,0.37,0.37,0.37h5.49c0.43,0,0.61,0.18,0.61,0.61v1.71
				c0,0.43-0.18,0.61-0.61,0.61h-5.49c-0.24,0-0.37,0.12-0.37,0.37v17.95c0,3.85,1.22,4.88,4.7,4.88h1.16
				c0.43,0,0.61,0.18,0.61,0.61v1.95c0,0.43-0.18,0.61-0.61,0.61H534.36z"/>
			<path class="st4" d="M547.73,242.98c-0.43,0-0.61-0.18-0.61-0.61v-3.42c0-0.43,0.18-0.61,0.61-0.61h2.69
				c0.43,0,0.61,0.18,0.61,0.61v3.42c0,0.43-0.18,0.61-0.61,0.61H547.73z M548.03,279.85c-0.43,0-0.61-0.18-0.61-0.61v-27.9
				c0-0.43,0.18-0.61,0.61-0.61h2.08c0.43,0,0.61,0.18,0.61,0.61v27.9c0,0.43-0.18,0.61-0.61,0.61H548.03z"/>
			<path class="st4" d="M583.87,279.85c-0.43,0-0.61-0.18-0.61-0.61v-17.22c0-5.8-2.56-8.73-7.63-8.73c-4.58,0-7.94,3.17-7.94,8.12
				v17.83c0,0.43-0.18,0.61-0.61,0.61H565c-0.43,0-0.61-0.18-0.61-0.61v-27.9c0-0.43,0.18-0.61,0.61-0.61h2.08
				c0.43,0,0.61,0.18,0.61,0.61v3.48h0.06c1.59-3.11,4.46-4.7,8.61-4.7c6.53,0,10.2,4.03,10.2,11.11v18.01
				c0,0.43-0.18,0.61-0.61,0.61H583.87z"/>
			<path class="st4" d="M598.76,272.77c-0.55-1.83-0.85-4.33-0.85-7.51c0-3.24,0.31-5.74,0.85-7.57c1.53-4.88,5.5-7.57,10.81-7.57
				c5.31,0,9.34,2.69,10.87,7.57c0.55,1.71,0.85,4.27,0.85,7.75c0,0.43-0.24,0.61-0.67,0.61h-18.99c-0.24,0-0.37,0.12-0.37,0.43
				c0,2.14,0.18,3.85,0.61,5.13c1.28,3.79,4.03,5.68,8.24,5.68c3.42,0,6.11-1.22,8.12-3.72c0.24-0.31,0.55-0.37,0.85-0.12l1.4,1.28
				c0.3,0.24,0.3,0.55,0.06,0.85c-2.44,3.24-5.98,4.88-10.62,4.88C604.13,280.46,600.41,277.9,598.76,272.77z M617.56,263.25
				c0.24,0,0.37-0.12,0.37-0.37c0-1.65-0.18-3.05-0.55-4.21c-1.16-3.66-3.79-5.49-7.81-5.49c-3.97,0-6.59,1.83-7.75,5.49
				c-0.37,1.16-0.55,2.56-0.55,4.21c0,0.24,0.12,0.37,0.37,0.37H617.56z"/>
			<path class="st4" d="M638.93,280.04c-4.4,0-6.04-1.95-6.04-6.84v-34.25c0-0.43,0.18-0.61,0.61-0.61h2.08
				c0.43,0,0.61,0.18,0.61,0.61v34.13c0,2.87,0.85,3.78,3.11,3.78h1.04c0.43,0,0.61,0.18,0.61,0.61v1.95c0,0.43-0.18,0.61-0.61,0.61
				H638.93z"/>
		</g>
		<rect x="303.37" y="231.19" class="st4" width="1.25" height="66.46"/>
		<g>
			<path class="st4" d="M271.74,279.85c-0.09,0-0.13-0.04-0.13-0.13v-4.3c0-0.05-0.03-0.08-0.08-0.08h-1.41
				c-0.09,0-0.13-0.04-0.13-0.13v-0.51c0-0.09,0.04-0.13,0.13-0.13h3.86c0.09,0,0.13,0.04,0.13,0.13v0.51
				c0,0.09-0.04,0.13-0.13,0.13h-1.41c-0.05,0-0.08,0.03-0.08,0.08v4.3c0,0.09-0.04,0.13-0.13,0.13H271.74z M279.25,279.85
				c-0.09,0-0.13-0.04-0.13-0.13v-3.24h-0.03l-1.2,2.49c-0.04,0.09-0.11,0.13-0.17,0.13h-0.44c-0.07,0-0.12-0.04-0.16-0.13
				l-1.2-2.49h-0.03v3.24c0,0.09-0.04,0.13-0.13,0.13h-0.55c-0.09,0-0.13-0.04-0.13-0.13v-5.03c0-0.09,0.04-0.13,0.13-0.13h0.52
				c0.07,0,0.13,0.04,0.17,0.12l1.59,3.39h0.04l1.56-3.39c0.04-0.08,0.09-0.12,0.19-0.12h0.52c0.09,0,0.13,0.04,0.13,0.13v5.03
				c0,0.09-0.04,0.13-0.13,0.13H279.25z"/>
		</g>
	</g>
</g>
<g>
	<g>
		<path class="st0" d="M27.79,474.46h-7.51c-2.23,0-4.04-1.81-4.04-4.04v-7.51c0-2.24,1.81-4.04,4.04-4.04h7.51
			c2.23,0,4.04,1.81,4.04,4.04v7.51C31.83,472.66,30.02,474.46,27.79,474.46"/>
		<path class="st0" d="M12.19,474.46H4.68c-2.23,0-4.04-1.81-4.04-4.04v-7.51c0-2.24,1.81-4.04,4.04-4.04h7.51
			c2.23,0,4.04,1.81,4.04,4.04v7.51C16.23,472.66,14.42,474.46,12.19,474.46"/>
	</g>
	<g>
		<path class="st0" d="M314.85,430.7v-7.51c0-2.23,1.81-4.04,4.04-4.04h7.51c2.24,0,4.04,1.81,4.04,4.04v7.51
			c0,2.23-1.81,4.04-4.04,4.04h-7.51C316.66,434.74,314.85,432.93,314.85,430.7"/>
		<path class="st0" d="M314.85,415.11v-7.51c0-2.23,1.81-4.04,4.04-4.04h7.51c2.24,0,4.04,1.81,4.04,4.04v7.51
			c0,2.23-1.81,4.04-4.04,4.04h-7.51C316.66,419.15,314.85,417.34,314.85,415.11"/>
	</g>
	<g>
		<path class="st0" d="M314.85,528.35v-7.51c0-2.23,1.81-4.04,4.04-4.04h7.51c2.24,0,4.04,1.81,4.04,4.04v7.51
			c0,2.23-1.81,4.04-4.04,4.04h-7.51C316.66,532.39,314.85,530.58,314.85,528.35"/>
		<path class="st0" d="M314.85,512.75v-7.51c0-2.23,1.81-4.04,4.04-4.04h7.51c2.24,0,4.04,1.81,4.04,4.04v7.51
			c0,2.23-1.81,4.04-4.04,4.04h-7.51C316.66,516.8,314.85,514.99,314.85,512.75"/>
	</g>
	<g>
		<path class="st0" d="M668.09,474.46h-7.51c-2.23,0-4.04-1.81-4.04-4.04v-7.51c0-2.24,1.81-4.04,4.04-4.04h7.51
			c2.23,0,4.04,1.81,4.04,4.04v7.51C672.13,472.66,670.32,474.46,668.09,474.46"/>
		<path class="st0" d="M652.5,474.46h-7.51c-2.23,0-4.04-1.81-4.04-4.04v-7.51c0-2.24,1.81-4.04,4.04-4.04h7.51
			c2.23,0,4.04,1.81,4.04,4.04v7.51C656.54,472.66,654.73,474.46,652.5,474.46"/>
	</g>
	<rect x="0.06" y="403.56" class="st2" width="672.66" height="128.83"/>
	<g>
		<g>
			<g>
				<path class="st4" d="M32.68,476.33c-0.55-1.83-0.86-4.33-0.86-7.51c0-3.24,0.31-5.74,0.86-7.57c1.53-4.88,5.49-7.57,10.81-7.57
					s9.34,2.69,10.87,7.57c0.55,1.71,0.86,4.27,0.86,7.75c0,0.43-0.24,0.61-0.67,0.61H35.55c-0.24,0-0.37,0.12-0.37,0.43
					c0,2.14,0.18,3.85,0.61,5.13c1.28,3.79,4.03,5.68,8.24,5.68c3.42,0,6.1-1.22,8.12-3.72c0.24-0.31,0.55-0.37,0.86-0.12l1.4,1.28
					c0.31,0.24,0.31,0.55,0.06,0.85c-2.44,3.24-5.98,4.88-10.62,4.88C38.06,484.02,34.33,481.45,32.68,476.33z M51.49,466.8
					c0.24,0,0.37-0.12,0.37-0.37c0-1.65-0.18-3.05-0.55-4.21c-1.16-3.66-3.79-5.49-7.81-5.49c-3.97,0-6.59,1.83-7.75,5.49
					c-0.37,1.16-0.55,2.56-0.55,4.21c0,0.24,0.12,0.37,0.37,0.37H51.49z"/>
				<path class="st4" d="M84.57,483.41c-0.37,0-0.67-0.18-0.86-0.49l-8.06-11.84H75.6l-8.12,11.84c-0.18,0.31-0.49,0.49-0.85,0.49
					h-2.44c-0.49,0-0.61-0.18-0.37-0.61l9.95-14.65l-8.97-13.25c-0.24-0.43-0.12-0.61,0.37-0.61h2.5c0.37,0,0.67,0.18,0.86,0.49
					l7.08,10.5h0.06l7.14-10.5c0.18-0.31,0.49-0.49,0.86-0.49h2.44c0.49,0,0.61,0.18,0.37,0.61l-9.04,13.25l10.01,14.65
					c0.24,0.43,0.12,0.61-0.37,0.61H84.57z"/>
				<path class="st4" d="M98.06,494.4c-0.43,0-0.61-0.18-0.61-0.61V454.9c0-0.43,0.18-0.61,0.61-0.61h2.08
					c0.43,0,0.61,0.18,0.61,0.61v3.54h0.06c1.65-3.17,4.58-4.76,8.85-4.76c5.07,0,8.36,2.32,9.89,6.96
					c0.67,2.26,1.04,5.01,1.04,8.24c0,3.24-0.37,5.92-1.04,8.18c-1.53,4.64-4.82,6.96-9.89,6.96c-4.27,0-7.21-1.59-8.85-4.76h-0.06
					v14.53c0,0.43-0.18,0.61-0.61,0.61H98.06z M116.44,475.72c0.55-1.59,0.79-3.85,0.79-6.84c0-2.99-0.24-5.31-0.79-6.9
					c-1.16-3.42-3.6-5.13-7.45-5.13s-6.35,1.71-7.45,5.13c-0.55,1.53-0.79,3.85-0.79,6.9c0,2.99,0.24,5.31,0.79,6.84
					c1.1,3.42,3.6,5.13,7.45,5.13S115.28,479.13,116.44,475.72z"/>
				<path class="st4" d="M131.21,476.33c-0.55-1.83-0.85-4.33-0.85-7.51c0-3.24,0.3-5.74,0.85-7.57c1.53-4.88,5.5-7.57,10.81-7.57
					s9.34,2.69,10.87,7.57c0.55,1.71,0.85,4.27,0.85,7.75c0,0.43-0.24,0.61-0.67,0.61h-18.99c-0.24,0-0.37,0.12-0.37,0.43
					c0,2.14,0.18,3.85,0.61,5.13c1.28,3.79,4.03,5.68,8.24,5.68c3.42,0,6.11-1.22,8.12-3.72c0.24-0.31,0.55-0.37,0.85-0.12l1.4,1.28
					c0.31,0.24,0.31,0.55,0.06,0.85c-2.44,3.24-5.98,4.88-10.62,4.88C136.58,484.02,132.86,481.45,131.21,476.33z M150.01,466.8
					c0.24,0,0.37-0.12,0.37-0.37c0-1.65-0.18-3.05-0.55-4.21c-1.16-3.66-3.79-5.49-7.81-5.49c-3.97,0-6.59,1.83-7.75,5.49
					c-0.37,1.16-0.55,2.56-0.55,4.21c0,0.24,0.12,0.37,0.37,0.37H150.01z"/>
				<path class="st4" d="M166.01,483.41c-0.43,0-0.61-0.18-0.61-0.61v-27.9c0-0.43,0.18-0.61,0.61-0.61h2.08
					c0.43,0,0.61,0.18,0.61,0.61v3.72h0.06c1.28-3.3,3.85-4.94,7.81-4.94c2.38,0,4.33,0.67,5.86,2.01c0.31,0.18,0.37,0.49,0.12,0.79
					l-1.22,1.71c-0.18,0.31-0.49,0.31-0.92,0.12c-1.53-0.98-3.11-1.47-4.64-1.47c-4.82,0-7.08,3.97-7.08,9.83v16.12
					c0,0.43-0.18,0.61-0.61,0.61H166.01z"/>
				<path class="st4" d="M192.32,446.53c-0.43,0-0.61-0.18-0.61-0.61v-3.42c0-0.43,0.18-0.61,0.61-0.61H195
					c0.43,0,0.61,0.18,0.61,0.61v3.42c0,0.43-0.18,0.61-0.61,0.61H192.32z M192.62,483.41c-0.43,0-0.61-0.18-0.61-0.61v-27.9
					c0-0.43,0.18-0.61,0.61-0.61h2.08c0.43,0,0.61,0.18,0.61,0.61v27.9c0,0.43-0.18,0.61-0.61,0.61H192.62z"/>
				<path class="st4" d="M211.3,458.93c-0.37,0.31-0.67,0.24-0.92-0.06l-1.04-1.53c-0.18-0.31-0.12-0.61,0.18-0.85
					c2.2-1.89,5.31-2.81,9.28-2.81c7.63,0,10.62,2.56,10.62,9.65v19.48c0,0.43-0.18,0.61-0.61,0.61h-1.95
					c-0.43,0-0.61-0.18-0.61-0.61v-3.05h-0.06c-1.22,2.5-4.46,4.27-9.04,4.27c-6.04,0-9.77-3.05-9.77-8.61
					c0-5.74,3.66-8.61,11.05-8.61h7.39c0.24,0,0.37-0.12,0.37-0.37v-2.99c0-4.88-1.77-6.72-7.57-6.72
					C215.51,456.73,213.07,457.46,211.3,458.93z M226.2,474.43v-4.46c0-0.24-0.12-0.37-0.37-0.37h-6.96c-5.68,0-8.24,1.83-8.24,5.74
					c0,3.66,2.56,5.62,7.2,5.62C222.9,480.97,226.2,478.4,226.2,474.43z"/>
				<path class="st4" d="M262.22,483.41c-0.43,0-0.61-0.18-0.61-0.61v-17.22c0-5.8-2.56-8.73-7.63-8.73c-4.58,0-7.94,3.17-7.94,8.12
					v17.83c0,0.43-0.18,0.61-0.61,0.61h-2.08c-0.43,0-0.61-0.18-0.61-0.61v-27.9c0-0.43,0.18-0.61,0.61-0.61h2.08
					c0.43,0,0.61,0.18,0.61,0.61v3.48h0.06c1.59-3.11,4.46-4.7,8.61-4.7c6.53,0,10.2,4.03,10.2,11.11v18.01
					c0,0.43-0.18,0.61-0.61,0.61H262.22z"/>
			</g>
		</g>
		<g>
			<path class="st4" d="M335.78,442.5c0-0.43,0.18-0.61,0.61-0.61h2.32c0.43,0,0.73,0.18,0.92,0.61l13.49,29.73h0.24l13.19-29.73
				c0.18-0.43,0.43-0.61,0.85-0.61h2.38c0.43,0,0.61,0.18,0.61,0.61v40.29c0,0.43-0.18,0.61-0.61,0.61h-2.26
				c-0.43,0-0.61-0.18-0.61-0.61v-32.48h-0.18l-11.97,26.31c-0.18,0.43-0.55,0.67-1.1,0.67h-1.22c-0.43,0-0.79-0.24-1.04-0.67
				l-11.97-26.31h-0.18v32.48c0,0.43-0.18,0.61-0.61,0.61h-2.26c-0.43,0-0.61-0.18-0.61-0.61V442.5z"/>
			<path class="st4" d="M384.49,446.53c-0.43,0-0.61-0.18-0.61-0.61v-3.42c0-0.43,0.18-0.61,0.61-0.61h2.69
				c0.43,0,0.61,0.18,0.61,0.61v3.42c0,0.43-0.18,0.61-0.61,0.61H384.49z M384.8,483.41c-0.43,0-0.61-0.18-0.61-0.61v-27.9
				c0-0.43,0.18-0.61,0.61-0.61h2.08c0.43,0,0.61,0.18,0.61,0.61v27.9c0,0.43-0.18,0.61-0.61,0.61H384.8z"/>
			<path class="st4" d="M423.38,482.61c-2.5-0.92-4.52-2.08-6.04-3.42c-0.31-0.31-0.31-0.55-0.06-0.85l1.46-1.83
				c0.31-0.31,0.55-0.37,0.86-0.06c3.66,2.87,7.63,4.27,11.9,4.27c6.59,0,10.75-3.36,10.75-8.49c0-4.4-2.69-7.14-9.95-8.06
				l-1.89-0.24c-8-1.04-11.97-4.7-11.97-10.99c0-7.14,5.07-11.66,13.06-11.66c4.7,0,8.61,1.16,11.84,3.48
				c0.37,0.18,0.43,0.49,0.12,0.85l-1.22,1.89c-0.24,0.31-0.55,0.31-0.85,0.12c-3.36-2.01-6.72-3.05-10.07-3.05
				c-5.86,0-9.4,3.24-9.4,8.12c0,4.4,2.93,6.96,9.77,7.88l1.89,0.24c8.12,1.04,12.15,4.76,12.15,11.17
				c0,7.27-5.31,12.03-14.65,12.03C428.45,484.02,425.88,483.53,423.38,482.61z"/>
			<path class="st4" d="M456.34,476.33c-0.55-1.83-0.85-4.33-0.85-7.51c0-3.24,0.31-5.74,0.85-7.57c1.53-4.88,5.5-7.57,10.81-7.57
				c5.31,0,9.34,2.69,10.87,7.57c0.55,1.71,0.85,4.27,0.85,7.75c0,0.43-0.24,0.61-0.67,0.61h-18.99c-0.24,0-0.37,0.12-0.37,0.43
				c0,2.14,0.18,3.85,0.61,5.13c1.28,3.79,4.03,5.68,8.24,5.68c3.42,0,6.11-1.22,8.12-3.72c0.24-0.31,0.55-0.37,0.85-0.12l1.4,1.28
				c0.3,0.24,0.3,0.55,0.06,0.85c-2.44,3.24-5.98,4.88-10.62,4.88C461.72,484.02,457.99,481.45,456.34,476.33z M475.15,466.8
				c0.24,0,0.37-0.12,0.37-0.37c0-1.65-0.18-3.05-0.55-4.21c-1.16-3.66-3.79-5.49-7.81-5.49c-3.97,0-6.59,1.83-7.75,5.49
				c-0.37,1.16-0.55,2.56-0.55,4.21c0,0.24,0.12,0.37,0.37,0.37H475.15z"/>
			<path class="st4" d="M510,483.41c-0.43,0-0.61-0.18-0.61-0.61v-17.22c0-5.8-2.56-8.73-7.63-8.73c-4.58,0-7.94,3.17-7.94,8.12
				v17.83c0,0.43-0.18,0.61-0.61,0.61h-2.08c-0.43,0-0.61-0.18-0.61-0.61v-27.9c0-0.43,0.18-0.61,0.61-0.61h2.08
				c0.43,0,0.61,0.18,0.61,0.61v3.48h0.06c1.59-3.11,4.46-4.7,8.61-4.7c6.53,0,10.2,4.03,10.2,11.11v18.01
				c0,0.43-0.18,0.61-0.61,0.61H510z"/>
			<path class="st4" d="M534.36,483.59c-5.56,0-7.57-2.2-7.57-7.88v-18.13c0-0.24-0.12-0.37-0.37-0.37h-3.05
				c-0.43,0-0.61-0.18-0.61-0.61v-1.71c0-0.43,0.18-0.61,0.61-0.61h3.05c0.24,0,0.37-0.12,0.37-0.37v-8.36
				c0-0.43,0.18-0.61,0.61-0.61h2.08c0.43,0,0.61,0.18,0.61,0.61v8.36c0,0.24,0.12,0.37,0.37,0.37h5.49c0.43,0,0.61,0.18,0.61,0.61
				v1.71c0,0.43-0.18,0.61-0.61,0.61h-5.49c-0.24,0-0.37,0.12-0.37,0.37v17.95c0,3.85,1.22,4.88,4.7,4.88h1.16
				c0.43,0,0.61,0.18,0.61,0.61v1.95c0,0.43-0.18,0.61-0.61,0.61H534.36z"/>
			<path class="st4" d="M547.73,446.53c-0.43,0-0.61-0.18-0.61-0.61v-3.42c0-0.43,0.18-0.61,0.61-0.61h2.69
				c0.43,0,0.61,0.18,0.61,0.61v3.42c0,0.43-0.18,0.61-0.61,0.61H547.73z M548.03,483.41c-0.43,0-0.61-0.18-0.61-0.61v-27.9
				c0-0.43,0.18-0.61,0.61-0.61h2.08c0.43,0,0.61,0.18,0.61,0.61v27.9c0,0.43-0.18,0.61-0.61,0.61H548.03z"/>
			<path class="st4" d="M583.87,483.41c-0.43,0-0.61-0.18-0.61-0.61v-17.22c0-5.8-2.56-8.73-7.63-8.73c-4.58,0-7.94,3.17-7.94,8.12
				v17.83c0,0.43-0.18,0.61-0.61,0.61H565c-0.43,0-0.61-0.18-0.61-0.61v-27.9c0-0.43,0.18-0.61,0.61-0.61h2.08
				c0.43,0,0.61,0.18,0.61,0.61v3.48h0.06c1.59-3.11,4.46-4.7,8.61-4.7c6.53,0,10.2,4.03,10.2,11.11v18.01
				c0,0.43-0.18,0.61-0.61,0.61H583.87z"/>
			<path class="st4" d="M598.76,476.33c-0.55-1.83-0.85-4.33-0.85-7.51c0-3.24,0.31-5.74,0.85-7.57c1.53-4.88,5.5-7.57,10.81-7.57
				c5.31,0,9.34,2.69,10.87,7.57c0.55,1.71,0.85,4.27,0.85,7.75c0,0.43-0.24,0.61-0.67,0.61h-18.99c-0.24,0-0.37,0.12-0.37,0.43
				c0,2.14,0.18,3.85,0.61,5.13c1.28,3.79,4.03,5.68,8.24,5.68c3.42,0,6.11-1.22,8.12-3.72c0.24-0.31,0.55-0.37,0.85-0.12l1.4,1.28
				c0.3,0.24,0.3,0.55,0.06,0.85c-2.44,3.24-5.98,4.88-10.62,4.88C604.13,484.02,600.41,481.45,598.76,476.33z M617.56,466.8
				c0.24,0,0.37-0.12,0.37-0.37c0-1.65-0.18-3.05-0.55-4.21c-1.16-3.66-3.79-5.49-7.81-5.49c-3.97,0-6.59,1.83-7.75,5.49
				c-0.37,1.16-0.55,2.56-0.55,4.21c0,0.24,0.12,0.37,0.37,0.37H617.56z"/>
			<path class="st4" d="M638.93,483.59c-4.4,0-6.04-1.95-6.04-6.84V442.5c0-0.43,0.18-0.61,0.61-0.61h2.08
				c0.43,0,0.61,0.18,0.61,0.61v34.13c0,2.87,0.85,3.78,3.11,3.78h1.04c0.43,0,0.61,0.18,0.61,0.61v1.95c0,0.43-0.18,0.61-0.61,0.61
				H638.93z"/>
		</g>
		<rect x="303.37" y="434.74" class="st4" width="1.25" height="66.46"/>
		<g>
			<path class="st4" d="M271.74,483.41c-0.09,0-0.13-0.04-0.13-0.13v-4.3c0-0.05-0.03-0.08-0.08-0.08h-1.41
				c-0.09,0-0.13-0.04-0.13-0.13v-0.51c0-0.09,0.04-0.13,0.13-0.13h3.86c0.09,0,0.13,0.04,0.13,0.13v0.51
				c0,0.09-0.04,0.13-0.13,0.13h-1.41c-0.05,0-0.08,0.03-0.08,0.08v4.3c0,0.09-0.04,0.13-0.13,0.13H271.74z M279.25,483.41
				c-0.09,0-0.13-0.04-0.13-0.13v-3.24h-0.03l-1.2,2.49c-0.04,0.09-0.11,0.13-0.17,0.13h-0.44c-0.07,0-0.12-0.04-0.16-0.13
				l-1.2-2.49h-0.03v3.24c0,0.09-0.04,0.13-0.13,0.13h-0.55c-0.09,0-0.13-0.04-0.13-0.13v-5.03c0-0.09,0.04-0.13,0.13-0.13h0.52
				c0.07,0,0.13,0.04,0.17,0.12l1.59,3.39h0.04l1.56-3.39c0.04-0.08,0.09-0.12,0.19-0.12h0.52c0.09,0,0.13,0.04,0.13,0.13v5.03
				c0,0.09-0.04,0.13-0.13,0.13H279.25z"/>
		</g>
	</g>
</g>
</svg>
